<svg id="Layer_1_copy_2" data-name="Layer 1 copy 2" xmlns="http://www.w3.org/2000/svg" viewBox="0 0 304 304"><defs><style>.cls-1{fill:none;stroke:#343a40;stroke-linecap:round;stroke-linejoin:round;stroke-width:4px;}</style></defs><title>be-discovered</title><polygon class="cls-1" points="117.63 52 52 52 52 117.63 52 186.38 52 252 117.63 252 186.38 252 252 252 252 186.38 252 117.63 252 52 186.38 52 117.63 52"/><line class="cls-1" x1="83.25" y1="133.25" x2="133.25" y2="133.25"/><line class="cls-1" x1="83.25" y1="120.75" x2="164.5" y2="120.75"/><line class="cls-1" x1="102" y1="220.75" x2="145.75" y2="220.75"/><line class="cls-1" x1="70.75" y1="208.25" x2="170.75" y2="208.25"/><line class="cls-1" x1="70.75" y1="220.75" x2="89.5" y2="220.75"/><line class="cls-1" x1="70.75" y1="189.5" x2="114.5" y2="189.5"/><line class="cls-1" x1="70.75" y1="177" x2="152" y2="177"/><line class="cls-1" x1="2" y1="2" x2="20.75" y2="2"/><line class="cls-1" x1="283.25" y1="2" x2="302" y2="2"/><line class="cls-1" x1="2" y1="302" x2="20.75" y2="302"/><line class="cls-1" x1="127" y1="189.5" x2="145.75" y2="189.5"/><line class="cls-1" x1="283.25" y1="302" x2="302" y2="302"/><rect class="cls-1" x="70.75" y="70.75" width="162.5" height="18.75" rx="9.37"/><rect class="cls-1" x="70.75" y="108.25" width="162.5" height="50"/></svg>